# xmcd CD database file
#
# Track frame offsets:
#	150
#	30276
#	58817
#	85402
#	108101
#	124782
#	146396
#	166455
#	191325
#	209931
#	232950
#
# Disc length: 3456 seconds
#
# Revision: 0
# Processed by: cddbd v1.4PL0 Copyright (c) Steve Scherf et al.
# Submitted via: CDex 1.50Beta7
#
DISCID=930d7e0b
DTITLE=David Calzado y su charanga habanera - Soy Cubano Soy Popular
DYEAR=2003
DGENRE=Salsa
TTITLE0=Soy Cubano Soy Popular
TTITLE1=El Bonny Està
TTITLE2=Timba con moña
TTITLE3=Abusadora
TTITLE4=Vuelve Junto a mi
TTITLE5=La gorda
TTITLE6=Otra Mujer
TTITLE7=Marina Quiere Bailar
TTITLE8=Entra en mi Vida
TTITLE9=Somos los Cubanos
TTITLE10=Entra en mi vida (Salsa)
EXTD=YEAR: 2003
EXTT0=
EXTT1=
EXTT2=
EXTT3=
EXTT4=
EXTT5=
EXTT6=
EXTT7=
EXTT8=
EXTT9=
EXTT10=
PLAYORDER=
